<svg width="1200" height="600" viewBox="0 0 1200 600" fill="none" xmlns="http://www.w3.org/2000/svg">
  <!-- Background gradient -->
  <defs>
    <linearGradient id="bg" x1="0%" y1="0%" x2="100%" y2="100%">
      <stop offset="0%" style="stop-color:#F97316;stop-opacity:1" />
      <stop offset="100%" style="stop-color:#EA580C;stop-opacity:1" />
    </linearGradient>
  </defs>
  <rect width="1200" height="600" fill="url(#bg)"/>
  
  <!-- Logo basé sur votre logo.svg officiel -->
  <g transform="translate(100, 180)">
    <!-- Background du logo -->
    <rect x="0" y="0" width="120" height="120" rx="20" fill="#F97316" stroke="white" stroke-width="3"/>
    <!-- Cerveau du logo officiel -->
    <g transform="translate(12, 12) scale(3.75)" stroke="white" stroke-width="2" stroke-linecap="round" stroke-linejoin="round" fill="none">
      <path d="M12 18V5"/>
      <path d="M15 13a4.17 4.17 0 0 1-3-4 4.17 4.17 0 0 1-3 4"/>
      <path d="M17.598 6.5A3 3 0 1 0 12 5a3 3 0 1 0-5.598 1.5"/>
      <path d="M17.997 5.125a4 4 0 0 1 2.526 5.77"/>
      <path d="M18 18a4 4 0 0 0 2-7.464"/>
      <path d="M19.967 17.483A4 4 0 1 1 12 18a4 4 0 1 1-7.967-.517"/>
      <path d="M6 18a4 4 0 0 1-2-7.464"/>
      <path d="M6.003 5.125a4 4 0 0 0-2.526 5.77"/>
    </g>
  </g>
  
  <!-- Title -->
  <text x="300" y="230" font-family="Arial, sans-serif" font-size="68" font-weight="bold" fill="white">
    RevisIA
  </text>
  
  <!-- Subtitle -->
  <text x="300" y="300" font-family="Arial, sans-serif" font-size="30" fill="white" opacity="0.9">
    Générateur de QCM par IA
  </text>
  
  <!-- Description -->
  <text x="300" y="360" font-family="Arial, sans-serif" font-size="22" fill="white" opacity="0.8">
    Transformez vos documents en quiz personnalisés
  </text>
  <text x="300" y="395" font-family="Arial, sans-serif" font-size="22" fill="white" opacity="0.8">
    pour optimiser vos révisions.
  </text>
  
  <!-- URL -->
  <text x="300" y="470" font-family="Arial, sans-serif" font-size="26" fill="white" opacity="0.7">
    revisia.app
  </text>
</svg>
